<svg xmlns="http://www.w3.org/2000/svg" xmlns:xlink="http://www.w3.org/1999/xlink" width="787.5684356689453" height="124.012451171875" viewBox="0 0 787.5684356689453 124.012451171875" fill="none"><path    stroke="rgba(0, 0, 0, 1)" stroke-width="8"  stroke-linecap="round"  d="M16.0585 98C16.0585 98 -10.4301 98 100.068 98C210.567 98 191.068 4 292.568 4C394.068 4 471.571 81.51 570.568 81.51C669.566 81.51 768.568 81.51 783.568 81.51"></path><path    stroke="rgba(0, 0, 0, 1)" stroke-width="8"  stroke-linecap="round"  d="M4.07167 108.002C4.07167 108.002 -2.41687 108.002 108.082 108.002C218.58 108.002 183.082 30.0024 284.582 30.0024C386.082 30.0024 461.584 106.012 560.582 106.012C659.58 106.012 722.072 106.012 737.072 106.012"></path><path    stroke="rgba(0, 0, 0, 1)" stroke-width="8"  stroke-linecap="round"  d="M19.0715 120.012C19.0715 120.012 -1.427 120.012 109.072 120.012C219.57 120.012 183.572 61.0024 285.072 61.0024C386.572 61.0024 417.574 120.012 516.572 120.012C615.569 120.012 632.072 120.012 647.072 120.012"></path></svg>